<svg width="256" height="139" viewBox="0 0 256 139" fill="none" xmlns="http://www.w3.org/2000/svg">
<path d="M126.171 51.2322H18.2857L0 87.7679H107.886L126.171 51.2322Z" fill="#5D15FC"/>
<mask id="mask0_23_408" style="mask-type:luminance" maskUnits="userSpaceOnUse" x="128" y="0" width="128" height="33">
<path d="M256 0.0822144H128V32.9643H256V0.0822144Z" fill="white"/>
</mask>
<g mask="url(#mask0_23_408)">
<path d="M245.028 0.0822144H255.999L237.714 32.9643H226.742L245.028 0.0822144Z" fill="#5D15FC"/>
<path d="M228.572 0.0822144H239.543L221.258 32.9643H210.286L228.572 0.0822144Z" fill="#5D15FC"/>
<path d="M212.115 0.0822144H223.086L204.801 32.9643H193.829L212.115 0.0822144Z" fill="#5D15FC"/>
<path d="M195.657 0.0822144H206.628L188.343 32.9643H177.371L195.657 0.0822144Z" fill="#5D15FC"/>
<path d="M179.2 0.0822144H190.171L171.885 32.9643H160.914L179.2 0.0822144Z" fill="#5D15FC"/>
<path d="M162.744 0.0822144H173.715L155.429 32.9643H144.458L162.744 0.0822144Z" fill="#5D15FC"/>
<path d="M146.286 0.0822144H157.257L138.971 32.9643H128L146.286 0.0822144Z" fill="#5D15FC"/>
</g>
<mask id="mask1_23_408" style="mask-type:luminance" maskUnits="userSpaceOnUse" x="64" y="106" width="128" height="33">
<path d="M192 106.035H64V138.918H192V106.035Z" fill="white"/>
</mask>
<g mask="url(#mask1_23_408)">
<path d="M181.029 106.035H192L173.715 138.918H162.743L181.029 106.035Z" fill="#5D15FC"/>
<path d="M164.572 106.035H175.543L157.258 138.918H146.286L164.572 106.035Z" fill="#5D15FC"/>
<path d="M148.115 106.035H159.086L140.801 138.918H129.829L148.115 106.035Z" fill="#5D15FC"/>
<path d="M131.658 106.035H142.629L124.344 138.918H113.372L131.658 106.035Z" fill="#5D15FC"/>
<path d="M115.201 106.035H126.172L107.886 138.918H96.915L115.201 106.035Z" fill="#5D15FC"/>
<path d="M98.7437 106.035H109.715L91.4294 138.918H80.458L98.7437 106.035Z" fill="#5D15FC"/>
<path d="M82.2857 106.035H93.2571L74.9714 138.918H64L82.2857 106.035Z" fill="#5D15FC"/>
</g>
</svg>
